PathFileType	4	(X/Y/Z)	TVC_36_BWA_04_walk_RCNL2025.trc
DataRate	CameraRate	NumFrames	NumMarkers	Units	OrigDataRate	OrigDataStartFrame	OrigNumFrames
100	100	11	27	mm	100	174	695
Frame#	Time	R_Shoulder			L_Shoulder			C7			J_Notch			R_Elbow			L_Elbow			R_Wrist			L_Wrist			R_Asis			L_Asis			R_Psis			L_Psis			Sacral			Thoracic			Sternum			R_Thigh_Lateral			R_Knee_Lateral			R_Shank_Lateral			R_Ankle_Lateral			R_Heel			R_Toe			L_Thigh_Lateral			L_Knee_Lateral			L_Shank_Lateral			L_Ankle_Lateral			L_Heel			L_Toe		
		X1	Y1	Z1	X2	Y2	Z2	X3	Y3	Z3	X4	Y4	Z4	X5	Y5	Z5	X6	Y6	Z6	X7	Y7	Z7	X8	Y8	Z8	X9	Y9	Z9	X10	Y10	Z10	X11	Y11	Z11	X12	Y12	Z12	X13	Y13	Z13	X14	Y14	Z14	X15	Y15	Z15	X16	Y16	Z16	X17	Y17	Z17	X18	Y18	Z18	X19	Y19	Z19	X20	Y20	Z20	X21	Y21	Z21	X22	Y22	Z22	X23	Y23	Z23	X24	Y24	Z24	X25	Y25	Z25	X26	Y26	Z26	X27	Y27	Z27
174	1.73000000	113.854919	1398.352051	298.055420	64.439209	1370.447998	-48.821350	55.682892	1439.568604	131.555573	200.525391	1307.718994	124.813545	23.557245	1122.927246	405.453522	72.567307	1079.469238	-163.660507	98.819401	911.297974	413.320389	228.555008	963.697052	-66.030802	140.528305	887.391907	245.238251	103.648293	908.058289	-11.964668	-38.126244	928.735535	192.062012	-51.447952	932.283997	109.948509	-44.787098	930.509766	151.005260	-6.386898	1153.125854	147.028214	232.765106	1154.199951	107.298271	172.833359	655.413452	341.945099	259.876831	489.461090	276.530518	176.370300	297.777283	318.122192	154.629288	103.005211	248.749908	116.199806	92.494301	190.905838	277.231842	63.321213	239.595749	54.742676	668.437988	-95.149330	53.791553	471.065704	-24.638748	9.930714	272.043854	-67.777100	67.400040	64.387306	-4.914948	21.594717	48.093330	36.307411	193.953522	51.364525	44.419468
175	1.74000000	118.817650	1397.526855	299.676819	69.065735	1370.760498	-47.161469	60.639122	1439.422241	133.163498	205.469742	1307.105469	126.038055	28.271914	1121.911987	406.310883	75.584694	1080.391968	-162.643570	102.711155	909.961426	414.050323	233.165955	965.497986	-66.382862	143.748947	886.836426	244.809387	106.526222	908.263855	-11.831159	-34.156521	928.935364	192.827682	-48.116478	932.482666	110.465561	-41.136499	930.709015	151.646622	-2.190104	1153.028442	148.189880	237.228836	1153.506470	108.097549	172.333023	650.483948	341.006439	256.929047	486.049744	273.212555	187.549347	292.730743	319.006897	175.190628	95.656441	250.755493	136.107727	83.872826	194.352203	298.886658	60.504978	240.276810	56.475544	668.436768	-94.698868	54.877003	471.100708	-24.527946	10.373426	272.284546	-67.526566	67.448120	64.308678	-4.992410	21.636353	48.102848	36.329781	193.873611	51.399265	44.353172
176	1.75000000	123.539604	1396.647339	301.381409	73.613731	1371.108154	-45.604218	65.582314	1439.067261	134.743820	210.298920	1306.519409	127.345482	33.163815	1121.008179	407.426270	78.926254	1081.018677	-162.005219	107.377842	908.814636	415.120316	237.638824	967.282043	-66.576097	146.509079	885.706848	245.064087	109.567612	908.156738	-11.370152	-30.390602	929.205261	193.495682	-44.281395	932.924438	111.371002	-37.335999	931.064850	152.433342	2.073224	1152.951172	149.347992	241.612823	1152.816772	109.021194	171.700607	647.766541	340.257843	255.732788	483.322754	270.918915	197.562881	287.788788	319.781738	194.698822	90.512604	253.365707	154.747177	76.643967	197.143677	319.235931	58.272453	240.830063	58.856663	668.658630	-93.901329	56.462219	471.151642	-24.108992	10.820683	272.490723	-67.167168	67.426270	64.354057	-4.989549	21.651831	48.197475	36.324863	193.929871	51.396561	44.183437
177	1.76000000	128.604248	1395.708374	303.139893	78.217560	1371.520142	-43.849506	70.969727	1438.984009	136.722397	215.070511	1305.969727	128.745850	37.987484	1119.857300	408.901428	82.091187	1081.660767	-161.064102	112.186047	907.541534	416.267212	242.223808	968.809204	-66.513496	149.861267	884.817688	245.543762	112.720634	908.090027	-10.447327	-26.497011	929.122925	194.526093	-40.489780	932.917786	112.565720	-33.493396	931.020355	153.545906	6.370398	1153.072876	150.800446	245.935226	1152.202393	110.107407	170.665665	644.460144	339.718689	255.408340	480.919556	268.684509	206.510559	284.340179	320.505554	211.979080	86.430061	255.921951	171.253510	71.029663	199.730301	336.314850	55.241886	242.223511	61.041378	668.818237	-93.162193	57.923573	471.344452	-23.664232	11.210974	272.821259	-66.830856	67.365990	64.331451	-4.924427	21.637548	48.163967	36.365543	193.924591	51.417610	44.074715
178	1.77000000	133.629333	1394.827759	305.015167	82.630974	1371.880615	-42.113480	75.989441	1438.801392	138.719070	219.763336	1305.554565	130.217834	43.065071	1118.875122	410.037842	85.076157	1081.999512	-159.618225	116.591705	906.289856	417.115540	246.555336	970.421753	-66.561613	153.843399	884.339600	246.023453	115.964897	908.333130	-9.601681	-22.100914	928.944031	195.858246	-36.630199	932.843384	114.066780	-29.365557	930.893707	154.962513	10.571230	1153.282349	152.436356	250.210953	1151.759766	110.878159	169.144836	640.665344	339.911682	255.163879	478.702911	266.661285	212.806412	281.590240	320.751190	225.216721	82.501381	257.094086	184.918457	66.953896	201.644104	351.103119	54.376259	242.223404	62.412827	669.224243	-92.663620	59.569923	471.590332	-23.096252	11.692745	273.212006	-66.335915	67.386032	64.349266	-4.848787	21.703598	48.202991	36.433739	193.833511	51.445442	43.951626
179	1.78000000	138.496994	1394.096558	306.953705	87.081490	1372.226318	-40.189751	80.823036	1438.716675	140.567017	224.257599	1304.971313	131.805618	48.137009	1118.054565	411.088318	87.924469	1082.430664	-158.058502	121.258156	905.130646	418.022339	250.888718	971.834015	-66.446136	158.123474	883.632141	246.437790	119.202187	908.475708	-8.587312	-17.337370	928.811035	197.529312	-32.567154	932.992981	115.705582	-24.952262	930.902008	156.617447	14.742073	1153.282715	154.364868	254.415665	1151.266846	111.864647	169.189285	637.538513	340.715118	254.589188	476.689117	264.519318	216.705505	279.339417	320.467743	235.158264	80.007507	257.903137	195.174179	63.568390	203.300842	362.035614	52.525974	242.597351	65.909866	669.280579	-90.990906	61.645374	471.968536	-22.446491	12.333100	273.691406	-65.622261	67.352623	64.300415	-4.926422	21.733934	48.227364	36.432632	193.776779	51.494732	43.771740
180	1.79000000	143.545227	1393.367554	309.154266	91.413887	1372.719238	-38.240551	85.885246	1438.715942	142.868942	228.744278	1304.337891	133.528336	53.314419	1117.137207	412.379486	91.017967	1082.990356	-156.408264	126.071365	903.907867	419.035141	255.050034	973.063629	-66.035044	163.803101	883.206421	247.376526	122.494713	908.609497	-7.689912	-12.338718	928.621277	199.520035	-28.426319	933.104065	117.624924	-20.382519	930.862671	158.572479	19.052404	1153.380005	156.738144	258.487823	1151.062744	112.847481	170.703445	635.052490	342.275726	254.821106	474.882904	262.992462	219.088425	277.097534	320.109558	241.746063	78.228851	258.923462	201.965057	61.079716	204.220062	369.339203	50.465000	243.408051	68.932770	669.997681	-89.525208	63.665295	472.249756	-21.711756	12.977673	274.166260	-64.914513	67.342934	64.294617	-4.922879	21.777140	48.306816	36.394485	193.717239	51.528542	43.556736
181	1.80000000	148.381042	1392.832275	311.294373	95.600365	1373.197021	-36.065327	90.561783	1438.767090	145.118698	233.087662	1304.126221	135.110138	58.488071	1116.293457	413.191406	94.426910	1083.395752	-154.114655	130.825283	902.879059	420.049713	259.330055	974.020294	-65.310581	170.491196	883.268311	248.432602	125.896759	908.885010	-6.775541	-7.275665	928.217651	201.673965	-24.221706	932.997986	119.885368	-15.748686	930.607819	160.779667	23.506948	1153.238892	158.905045	262.417755	1150.833008	113.951294	171.818527	631.852478	342.845673	255.048004	472.663574	261.496307	220.560959	274.704620	319.171661	245.269104	76.598160	259.008453	205.465683	58.815521	204.035019	372.979919	47.731926	243.416565	72.180367	670.216797	-89.005791	65.885979	472.694305	-21.096609	13.664644	274.687805	-64.373886	67.305153	64.277313	-4.978666	21.753189	48.321953	36.375271	193.627808	51.552113	43.244656
182	1.81000000	153.260132	1392.318359	313.771393	99.684975	1373.594971	-33.696911	94.367783	1438.835205	147.882233	237.469452	1304.239624	136.850769	63.612400	1115.622070	414.092163	97.513390	1083.839355	-151.997360	136.134510	902.140747	421.241287	263.667297	975.020508	-64.297077	177.177795	883.189636	249.363708	128.952148	909.269531	-5.138375	-1.949565	927.642883	203.979416	-19.706867	932.816223	122.402077	-10.828216	930.229553	163.190746	28.075741	1153.051636	161.701248	266.348358	1150.882324	115.109123	170.988815	628.868713	342.887146	255.377518	470.407806	260.518738	221.558868	272.272125	318.884644	246.410019	74.986839	258.698395	205.918030	56.802998	203.914490	373.434296	43.853088	242.003952	74.696915	670.807922	-87.772728	68.225792	472.800842	-20.495256	14.335013	275.275299	-63.723087	67.367180	64.351601	-4.990401	21.844456	48.428291	36.331429	193.623886	51.666271	42.899754
183	1.82000000	158.141327	1392.028198	316.015350	103.455505	1374.139526	-31.139421	99.487770	1439.111084	150.388245	241.817657	1304.293335	138.696930	69.064812	1115.161621	415.142151	100.884666	1084.267822	-149.475189	141.188702	901.470032	422.192520	267.781616	975.627686	-63.242182	183.561432	882.923096	250.411499	132.381226	909.529724	-3.736009	3.684411	927.304443	206.811447	-15.048517	932.621460	125.340500	-5.682053	929.962952	166.075974	32.779926	1152.888428	164.371902	270.553741	1150.969604	116.400986	171.680206	626.936646	342.520630	255.642502	467.957855	259.818481	221.858597	269.763031	317.941956	244.309769	71.811508	257.691681	204.645447	53.973400	203.782211	373.451050	44.151466	239.757492	77.157341	671.345825	-86.414864	70.277626	473.111053	-19.879004	15.073031	275.818970	-63.152515	67.280449	64.324486	-5.120618	21.893988	48.518803	36.280537	193.505859	51.803040	42.598457
184	1.83000000	162.934937	1391.684814	318.571686	107.019112	1374.772095	-28.517811	104.125710	1439.458862	153.178925	245.966064	1304.476807	140.776855	74.382881	1114.751099	415.832336	104.407112	1084.952881	-147.079453	145.890835	900.740936	423.104309	271.921906	976.027893	-62.120144	189.482941	882.947693	251.244827	135.800140	910.023682	-2.619756	8.653248	927.131409	209.476578	-10.870900	932.641418	128.125900	-1.108826	929.886414	168.801239	37.477585	1152.730591	167.343353	274.798065	1151.320312	117.706833	175.603683	627.041016	341.642120	256.073425	466.049500	259.569275	221.111908	268.011230	316.850006	243.291031	70.943436	256.052460	205.210953	53.624836	203.323608	373.842560	44.126308	239.637177	79.870781	671.921570	-85.092560	72.568695	473.468384	-18.958927	15.824919	276.330414	-62.421364	67.310349	64.391533	-5.262676	21.947811	48.628540	36.223427	193.314011	51.914272	42.355099
